<mxfile host="app.diagrams.net" agent="Mozilla/5.0 (Windows NT 10.0; Win64; x64) AppleWebKit/537.36 (KHTML, like Gecko) Chrome/129.0.0.0 Safari/537.36 Edg/129.0.0.0" version="24.7.17">
  <diagram name="Seite-1" id="oLiCQf_VETDeqpSE4w_G">
    <mxGraphModel dx="610" dy="739" grid="1" gridSize="10" guides="1" tooltips="1" connect="1" arrows="1" fold="1" page="1" pageScale="1" pageWidth="827" pageHeight="1169" math="0" shadow="0">
      <root>
        <mxCell id="0" />
        <mxCell id="1" parent="0" />
        <mxCell id="dpHEBboxWnIR17ErzE7y-1" value="" style="rounded=0;whiteSpace=wrap;html=1;" parent="1" vertex="1">
          <mxGeometry x="320" y="160" width="200" height="40" as="geometry" />
        </mxCell>
        <mxCell id="dpHEBboxWnIR17ErzE7y-2" value="Fakt: price_range" style="text;html=1;align=center;verticalAlign=middle;whiteSpace=wrap;rounded=0;" parent="1" vertex="1">
          <mxGeometry x="364" y="165" width="100" height="30" as="geometry" />
        </mxCell>
        <mxCell id="dpHEBboxWnIR17ErzE7y-3" value="" style="rounded=0;whiteSpace=wrap;html=1;" parent="1" vertex="1">
          <mxGeometry x="560" width="200" height="40" as="geometry" />
        </mxCell>
        <mxCell id="dpHEBboxWnIR17ErzE7y-4" value="Dim: Manufacturer" style="text;html=1;align=center;verticalAlign=middle;whiteSpace=wrap;rounded=0;" parent="1" vertex="1">
          <mxGeometry x="595" y="5" width="130" height="30" as="geometry" />
        </mxCell>
        <mxCell id="dpHEBboxWnIR17ErzE7y-5" value="" style="rounded=0;whiteSpace=wrap;html=1;" parent="1" vertex="1">
          <mxGeometry x="80" width="200" height="40" as="geometry" />
        </mxCell>
        <mxCell id="dpHEBboxWnIR17ErzE7y-6" value="Dim: Product" style="text;html=1;align=center;verticalAlign=middle;whiteSpace=wrap;rounded=0;" parent="1" vertex="1">
          <mxGeometry x="115" y="5" width="130" height="30" as="geometry" />
        </mxCell>
        <mxCell id="dpHEBboxWnIR17ErzE7y-7" value="" style="rounded=0;whiteSpace=wrap;html=1;" parent="1" vertex="1">
          <mxGeometry x="80" y="320" width="200" height="40" as="geometry" />
        </mxCell>
        <mxCell id="dpHEBboxWnIR17ErzE7y-8" value="Dim: Prices" style="text;html=1;align=center;verticalAlign=middle;whiteSpace=wrap;rounded=0;" parent="1" vertex="1">
          <mxGeometry x="115" y="325" width="130" height="30" as="geometry" />
        </mxCell>
        <mxCell id="dpHEBboxWnIR17ErzE7y-11" value="" style="rounded=0;whiteSpace=wrap;html=1;" parent="1" vertex="1">
          <mxGeometry x="560" y="320" width="200" height="40" as="geometry" />
        </mxCell>
        <mxCell id="dpHEBboxWnIR17ErzE7y-12" value="Dim: Time" style="text;html=1;align=center;verticalAlign=middle;whiteSpace=wrap;rounded=0;" parent="1" vertex="1">
          <mxGeometry x="595" y="325" width="130" height="30" as="geometry" />
        </mxCell>
        <mxCell id="dpHEBboxWnIR17ErzE7y-13" value="" style="rhombus;whiteSpace=wrap;html=1;" parent="1" vertex="1">
          <mxGeometry x="635" y="240" width="50" height="50" as="geometry" />
        </mxCell>
        <mxCell id="dpHEBboxWnIR17ErzE7y-14" value="" style="endArrow=none;html=1;rounded=0;exitX=0.5;exitY=0;exitDx=0;exitDy=0;" parent="1" source="dpHEBboxWnIR17ErzE7y-11" edge="1">
          <mxGeometry width="50" height="50" relative="1" as="geometry">
            <mxPoint x="610" y="340" as="sourcePoint" />
            <mxPoint x="660" y="290" as="targetPoint" />
          </mxGeometry>
        </mxCell>
        <mxCell id="dpHEBboxWnIR17ErzE7y-15" value="" style="endArrow=none;html=1;rounded=0;exitX=1;exitY=0.75;exitDx=0;exitDy=0;entryX=0.5;entryY=0;entryDx=0;entryDy=0;" parent="1" source="dpHEBboxWnIR17ErzE7y-1" target="dpHEBboxWnIR17ErzE7y-13" edge="1">
          <mxGeometry width="50" height="50" relative="1" as="geometry">
            <mxPoint x="400" y="270" as="sourcePoint" />
            <mxPoint x="450" y="220" as="targetPoint" />
            <Array as="points">
              <mxPoint x="660" y="190" />
            </Array>
          </mxGeometry>
        </mxCell>
        <mxCell id="dpHEBboxWnIR17ErzE7y-16" value="" style="rhombus;whiteSpace=wrap;html=1;" parent="1" vertex="1">
          <mxGeometry x="635" y="85" width="50" height="50" as="geometry" />
        </mxCell>
        <mxCell id="dpHEBboxWnIR17ErzE7y-17" value="" style="endArrow=none;html=1;rounded=0;exitX=1;exitY=0.25;exitDx=0;exitDy=0;entryX=0.5;entryY=1;entryDx=0;entryDy=0;" parent="1" source="dpHEBboxWnIR17ErzE7y-1" target="dpHEBboxWnIR17ErzE7y-16" edge="1">
          <mxGeometry width="50" height="50" relative="1" as="geometry">
            <mxPoint x="400" y="170" as="sourcePoint" />
            <mxPoint x="450" y="120" as="targetPoint" />
            <Array as="points">
              <mxPoint x="660" y="170" />
            </Array>
          </mxGeometry>
        </mxCell>
        <mxCell id="dpHEBboxWnIR17ErzE7y-18" value="" style="endArrow=none;html=1;rounded=0;entryX=0.5;entryY=1;entryDx=0;entryDy=0;" parent="1" target="dpHEBboxWnIR17ErzE7y-3" edge="1">
          <mxGeometry width="50" height="50" relative="1" as="geometry">
            <mxPoint x="660" y="85" as="sourcePoint" />
            <mxPoint x="710" y="35" as="targetPoint" />
          </mxGeometry>
        </mxCell>
        <mxCell id="dpHEBboxWnIR17ErzE7y-19" value="" style="rhombus;whiteSpace=wrap;html=1;" parent="1" vertex="1">
          <mxGeometry x="145" y="240" width="50" height="50" as="geometry" />
        </mxCell>
        <mxCell id="dpHEBboxWnIR17ErzE7y-20" value="" style="endArrow=none;html=1;rounded=0;exitX=0.5;exitY=0;exitDx=0;exitDy=0;" parent="1" edge="1">
          <mxGeometry width="50" height="50" relative="1" as="geometry">
            <mxPoint x="170" y="320" as="sourcePoint" />
            <mxPoint x="170" y="290" as="targetPoint" />
          </mxGeometry>
        </mxCell>
        <mxCell id="dpHEBboxWnIR17ErzE7y-21" value="" style="endArrow=none;html=1;rounded=0;exitX=0;exitY=0.75;exitDx=0;exitDy=0;entryX=0.5;entryY=0;entryDx=0;entryDy=0;" parent="1" source="dpHEBboxWnIR17ErzE7y-1" target="dpHEBboxWnIR17ErzE7y-19" edge="1">
          <mxGeometry width="50" height="50" relative="1" as="geometry">
            <mxPoint x="30" y="190" as="sourcePoint" />
            <mxPoint x="-40" y="220" as="targetPoint" />
            <Array as="points">
              <mxPoint x="170" y="190" />
            </Array>
          </mxGeometry>
        </mxCell>
        <mxCell id="dpHEBboxWnIR17ErzE7y-22" value="" style="rhombus;whiteSpace=wrap;html=1;" parent="1" vertex="1">
          <mxGeometry x="145" y="85" width="50" height="50" as="geometry" />
        </mxCell>
        <mxCell id="dpHEBboxWnIR17ErzE7y-23" value="" style="endArrow=none;html=1;rounded=0;exitX=0;exitY=0.25;exitDx=0;exitDy=0;entryX=0.5;entryY=1;entryDx=0;entryDy=0;" parent="1" source="dpHEBboxWnIR17ErzE7y-1" target="dpHEBboxWnIR17ErzE7y-22" edge="1">
          <mxGeometry width="50" height="50" relative="1" as="geometry">
            <mxPoint x="30" y="170" as="sourcePoint" />
            <mxPoint x="-40" y="120" as="targetPoint" />
            <Array as="points">
              <mxPoint x="170" y="170" />
            </Array>
          </mxGeometry>
        </mxCell>
        <mxCell id="dpHEBboxWnIR17ErzE7y-24" value="" style="endArrow=none;html=1;rounded=0;entryX=0.5;entryY=1;entryDx=0;entryDy=0;" parent="1" edge="1">
          <mxGeometry width="50" height="50" relative="1" as="geometry">
            <mxPoint x="170" y="85" as="sourcePoint" />
            <mxPoint x="170" y="40" as="targetPoint" />
          </mxGeometry>
        </mxCell>
        <mxCell id="dpHEBboxWnIR17ErzE7y-25" value="N" style="text;html=1;align=center;verticalAlign=middle;whiteSpace=wrap;rounded=0;" parent="1" vertex="1">
          <mxGeometry x="270" y="140" width="60" height="30" as="geometry" />
        </mxCell>
        <mxCell id="dpHEBboxWnIR17ErzE7y-26" value="N" style="text;html=1;align=center;verticalAlign=middle;whiteSpace=wrap;rounded=0;" parent="1" vertex="1">
          <mxGeometry x="270" y="190" width="60" height="30" as="geometry" />
        </mxCell>
        <mxCell id="dpHEBboxWnIR17ErzE7y-27" value="N" style="text;html=1;align=center;verticalAlign=middle;whiteSpace=wrap;rounded=0;" parent="1" vertex="1">
          <mxGeometry x="510" y="140" width="60" height="30" as="geometry" />
        </mxCell>
        <mxCell id="dpHEBboxWnIR17ErzE7y-28" value="N" style="text;html=1;align=center;verticalAlign=middle;whiteSpace=wrap;rounded=0;" parent="1" vertex="1">
          <mxGeometry x="510" y="190" width="60" height="30" as="geometry" />
        </mxCell>
        <mxCell id="dpHEBboxWnIR17ErzE7y-29" value="1" style="text;html=1;align=center;verticalAlign=middle;whiteSpace=wrap;rounded=0;" parent="1" vertex="1">
          <mxGeometry x="160" y="35" width="60" height="30" as="geometry" />
        </mxCell>
        <mxCell id="dpHEBboxWnIR17ErzE7y-30" value="1" style="text;html=1;align=center;verticalAlign=middle;whiteSpace=wrap;rounded=0;" parent="1" vertex="1">
          <mxGeometry x="150" y="290" width="60" height="30" as="geometry" />
        </mxCell>
        <mxCell id="dpHEBboxWnIR17ErzE7y-31" value="1" style="text;html=1;align=center;verticalAlign=middle;whiteSpace=wrap;rounded=0;" parent="1" vertex="1">
          <mxGeometry x="610" y="40" width="60" height="30" as="geometry" />
        </mxCell>
        <mxCell id="dpHEBboxWnIR17ErzE7y-32" value="1" style="text;html=1;align=center;verticalAlign=middle;whiteSpace=wrap;rounded=0;" parent="1" vertex="1">
          <mxGeometry x="650" y="295" width="60" height="30" as="geometry" />
        </mxCell>
      </root>
    </mxGraphModel>
  </diagram>
</mxfile>
